REM DIRINDEX 1\2,1\3,1\4,1\5,1\6,1\7,1\8
REM DIRNAME cjc152,folder01,folder02,folder03,folder04,folder05,folder06,folder07
TITLE ""
FILE "01_Ch1_IntheMorning_Words.mp3" MP3
  TRACK 01 AUDIO
    TITLE "0:"
    INDEX 01 00:00:00
  TRACK 02 AUDIO
    TITLE "8:cjc152_0001"
    INDEX 01 00:00:29
  TRACK 03 AUDIO
    TITLE "0:"
    INDEX 01 00:03:63
  TRACK 04 AUDIO
    TITLE "8:cjc152_0002"
    INDEX 01 00:04:54
  TRACK 05 AUDIO
    TITLE "0:"
    INDEX 01 00:05:73
  TRACK 06 AUDIO
    TITLE "2:cjc152_0003"
    INDEX 01 00:06:65
  TRACK 07 AUDIO
    TITLE "0:"
    INDEX 01 00:08:05
  TRACK 08 AUDIO
    TITLE "2:cjc152_0004"
    INDEX 01 00:08:36
  TRACK 09 AUDIO
    TITLE "0:"
    INDEX 01 00:09:65
  TRACK 10 AUDIO
    TITLE "2:cjc152_0005"
    INDEX 01 00:10:59
  TRACK 11 AUDIO
    TITLE "0:"
    INDEX 01 00:12:05
  TRACK 12 AUDIO
    TITLE "2:cjc152_0006"
    INDEX 01 00:12:34
  TRACK 13 AUDIO
    TITLE "0:"
    INDEX 01 00:13:45
  TRACK 14 AUDIO
    TITLE "2:cjc152_0007"
    INDEX 01 00:14:37
  TRACK 15 AUDIO
    TITLE "0:"
    INDEX 01 00:15:54
  TRACK 16 AUDIO
    TITLE "2:cjc152_0008"
    INDEX 01 00:16:10
  TRACK 17 AUDIO
    TITLE "0:"
    INDEX 01 00:17:29
  TRACK 18 AUDIO
    TITLE "2:cjc152_0009"
    INDEX 01 00:18:21
  TRACK 19 AUDIO
    TITLE "0:"
    INDEX 01 00:19:24
  TRACK 20 AUDIO
    TITLE "2:cjc152_0010"
    INDEX 01 00:19:54
  TRACK 21 AUDIO
    TITLE "0:"
    INDEX 01 00:20:63
  TRACK 22 AUDIO
    TITLE "2:cjc152_0011"
    INDEX 01 00:21:57
  TRACK 23 AUDIO
    TITLE "0:"
    INDEX 01 00:22:74
  TRACK 24 AUDIO
    TITLE "2:cjc152_0012"
    INDEX 01 00:23:26
  TRACK 25 AUDIO
    TITLE "0:"
    INDEX 01 00:24:51
  TRACK 26 AUDIO
    TITLE "2:cjc152_0013"
    INDEX 01 00:25:45
  TRACK 27 AUDIO
    TITLE "0:"
    INDEX 01 00:26:42
  TRACK 28 AUDIO
    TITLE "2:cjc152_0014"
    INDEX 01 00:27:00
  TRACK 29 AUDIO
    TITLE "0:"
    INDEX 01 00:28:27
  TRACK 30 AUDIO
    TITLE "2:cjc152_0015"
    INDEX 01 00:29:19
  TRACK 31 AUDIO
    TITLE "0:"
    INDEX 01 00:30:28
  TRACK 32 AUDIO
    TITLE "2:cjc152_0016"
    INDEX 01 00:30:57
  TRACK 33 AUDIO
    TITLE "0:"
    INDEX 01 00:31:67
  TRACK 34 AUDIO
    TITLE "2:cjc152_0017"
    INDEX 01 00:32:60
  TRACK 35 AUDIO
    TITLE "0:"
    INDEX 01 00:34:12
  TRACK 36 AUDIO
    TITLE "2:cjc152_0018"
    INDEX 01 00:34:42
  TRACK 37 AUDIO
    TITLE "0:"
    INDEX 01 00:36:07
  TRACK 38 AUDIO
    TITLE "2:cjc152_0019"
    INDEX 01 00:37:01
  TRACK 39 AUDIO
    TITLE "0:"
    INDEX 01 00:38:30
  TRACK 40 AUDIO
    TITLE "2:cjc152_0020"
    INDEX 01 00:38:59
  TRACK 41 AUDIO
    TITLE "0:"
    INDEX 01 00:40:17
  TRACK 42 AUDIO
    TITLE "2:cjc152_0021"
    INDEX 01 00:41:10
  TRACK 43 AUDIO
    TITLE "0:"
    INDEX 01 00:42:35
  TRACK 44 AUDIO
    TITLE "2:cjc152_0022"
    INDEX 01 00:42:66
  TRACK 45 AUDIO
    TITLE "0:"
    INDEX 01 00:44:36
  TRACK 46 AUDIO
    TITLE "2:cjc152_0023"
    INDEX 01 00:45:28
  TRACK 47 AUDIO
    TITLE "0:"
    INDEX 01 00:47:05
  TRACK 48 AUDIO
    TITLE "2:cjc152_0024"
    INDEX 01 00:47:34
  TRACK 49 AUDIO
    TITLE "0:"
    INDEX 01 00:48:59
  TRACK 50 AUDIO
    TITLE "2:cjc152_0025"
    INDEX 01 00:49:53
  TRACK 51 AUDIO
    TITLE "0:"
    INDEX 01 00:50:52
  TRACK 52 AUDIO
    TITLE "2:cjc152_0026"
    INDEX 01 00:51:09
  TRACK 53 AUDIO
    TITLE "0:"
    INDEX 01 00:52:14
  TRACK 54 AUDIO
    TITLE "2:cjc152_0027"
    INDEX 01 00:53:08
  TRACK 55 AUDIO
    TITLE "0:"
    INDEX 01 00:54:07
  TRACK 56 AUDIO
    TITLE "2:cjc152_0028"
    INDEX 01 00:54:38
  TRACK 57 AUDIO
    TITLE "0:"
    INDEX 01 00:55:51
  TRACK 58 AUDIO
    TITLE "2:cjc152_0029"
    INDEX 01 00:56:45
  TRACK 59 AUDIO
    TITLE "0:"
    INDEX 01 00:57:45
  TRACK 60 AUDIO
    TITLE "2:cjc152_0030"
    INDEX 01 00:58:01
  TRACK 61 AUDIO
    TITLE "0:"
    INDEX 01 00:59:26
  TRACK 62 AUDIO
    TITLE "2:cjc152_0031"
    INDEX 01 01:00:17
  TRACK 63 AUDIO
    TITLE "0:"
    INDEX 01 01:01:29
  TRACK 64 AUDIO
    TITLE "2:cjc152_0032"
    INDEX 01 01:01:60
  TRACK 65 AUDIO
    TITLE "0:"
    INDEX 01 01:03:43
  TRACK 66 AUDIO
    TITLE "2:cjc152_0033"
    INDEX 01 01:04:41
  TRACK 67 AUDIO
    TITLE "0:"
    INDEX 01 01:05:54
  TRACK 68 AUDIO
    TITLE "2:cjc152_0034"
    INDEX 01 01:06:12
  TRACK 69 AUDIO
    TITLE "0:"
    INDEX 01 01:07:29
  TRACK 70 AUDIO
    TITLE "2:cjc152_0035"
    INDEX 01 01:08:21
  TRACK 71 AUDIO
    TITLE "0:"
    INDEX 01 01:09:40
  TRACK 72 AUDIO
    TITLE "2:cjc152_0036"
    INDEX 01 01:09:69
  TRACK 73 AUDIO
    TITLE "0:"
    INDEX 01 01:11:25
  TRACK 74 AUDIO
    TITLE "2:cjc152_0037"
    INDEX 01 01:12:19
  TRACK 75 AUDIO
    TITLE "0:"
    INDEX 01 01:13:08
  TRACK 76 AUDIO
    TITLE "2:cjc152_0038"
    INDEX 01 01:13:44
  TRACK 77 AUDIO
    TITLE "0:"
    INDEX 01 01:14:55
  TRACK 78 AUDIO
    TITLE "2:cjc152_0039"
    INDEX 01 01:15:46
  TRACK 79 AUDIO
    TITLE "0:"
    INDEX 01 01:16:54
  TRACK 80 AUDIO
    TITLE "2:cjc152_0040"
    INDEX 01 01:17:08
  TRACK 81 AUDIO
    TITLE "0:"
    INDEX 01 01:18:43
  TRACK 82 AUDIO
    TITLE "2:cjc152_0041"
    INDEX 01 01:19:36
  TRACK 83 AUDIO
    TITLE "0:"
    INDEX 01 01:20:42
  TRACK 84 AUDIO
    TITLE "2:cjc152_0042"
    INDEX 01 01:20:73
  TRACK 85 AUDIO
    TITLE "0:"
    INDEX 01 01:22:21
  TRACK 86 AUDIO
    TITLE "2:cjc152_0043"
    INDEX 01 01:23:15
  TRACK 87 AUDIO
    TITLE "0:"
    INDEX 01 01:24:57
  TRACK 88 AUDIO
    TITLE "2:cjc152_0044"
    INDEX 01 01:25:13
  TRACK 89 AUDIO
    TITLE "0:"
    INDEX 01 01:26:66
  TRACK 90 AUDIO
    TITLE "2:cjc152_0045"
    INDEX 01 01:27:57
  TRACK 91 AUDIO
    TITLE "0:"
    INDEX 01 01:29:05
  TRACK 92 AUDIO
    TITLE "2:cjc152_0046"
    INDEX 01 01:29:35
  TRACK 93 AUDIO
    TITLE "0:"
    INDEX 01 01:30:73
  TRACK 94 AUDIO
    TITLE "2:cjc152_0047"
    INDEX 01 01:31:69
  TRACK 95 AUDIO
    TITLE "0:"
    INDEX 01 01:33:27
  TRACK 96 AUDIO
    TITLE "2:cjc152_0048"
    INDEX 01 01:33:64
  TRACK 97 AUDIO
    TITLE "0:"
    INDEX 01 01:35:39
  TRACK 98 AUDIO
    TITLE "2:cjc152_0049"
    INDEX 01 01:36:33
  TRACK 99 AUDIO
    TITLE "0:"
    INDEX 01 01:38:10
  TRACK 100 AUDIO
    TITLE "2:cjc152_0050"
    INDEX 01 01:38:42
  TRACK 101 AUDIO
    TITLE "0:"
    INDEX 01 01:40:35
